<svg width="45" height="48" viewBox="0 0 45 48" fill="none" xmlns="http://www.w3.org/2000/svg">
<g clip-path="url(#clip0_1_29)" filter="url(#filter0_d_1_29)">
<rect x="4.5" y="16.6666" width="23.3333" height="23.3333" fill="#7595FD"/>
<path d="M36.1517 3.33337H19.5167C17.665 3.33337 16.1667 4.83171 16.1667 6.68337V16.0784L8.33001 23.815C8.0952 24.0473 7.93468 24.344 7.86881 24.6676C7.80295 24.9913 7.83471 25.3271 7.96006 25.6327C8.08542 25.9382 8.29872 26.1996 8.5729 26.3837C8.84707 26.5678 9.16976 26.6663 9.50001 26.6667V35C9.50001 35.4421 9.6756 35.866 9.98816 36.1786C10.3007 36.4911 10.7246 36.6667 11.1667 36.6667H37.8333C38.2754 36.6667 38.6993 36.4911 39.0119 36.1786C39.3244 35.866 39.5 35.4421 39.5 35V6.68171C39.5 4.83171 38.0033 3.33337 36.1517 3.33337ZM22.7033 25.185V33.3334H12.8333V24.0534L17.8117 19.1384L22.7033 24.1434V25.185V25.185ZM26.1667 15H22.8333V11.6667H26.1667V15ZM32.8333 28.3334H29.5V25H32.8333V28.3334ZM32.8333 21.6667H29.5V18.3334H32.8333V21.6667ZM32.8333 15H29.5V11.6667H32.8333V15Z" fill="#292E3D"/>
<path d="M16.1666 25H19.5V28.3333H16.1666V25Z" fill="#14171F"/>
</g>
<defs>
<filter id="filter0_d_1_29" x="0.5" y="0" width="48" height="48" filterUnits="userSpaceOnUse" color-interpolation-filters="sRGB">
<feFlood flood-opacity="0" result="BackgroundImageFix"/>
<feColorMatrix in="SourceAlpha" type="matrix" values="0 0 0 0 0 0 0 0 0 0 0 0 0 0 0 0 0 0 127 0" result="hardAlpha"/>
<feOffset dy="4"/>
<feGaussianBlur stdDeviation="2"/>
<feComposite in2="hardAlpha" operator="out"/>
<feColorMatrix type="matrix" values="0 0 0 0 0 0 0 0 0 0 0 0 0 0 0 0 0 0 0.25 0"/>
<feBlend mode="normal" in2="BackgroundImageFix" result="effect1_dropShadow_1_29"/>
<feBlend mode="normal" in="SourceGraphic" in2="effect1_dropShadow_1_29" result="shape"/>
</filter>
<clipPath id="clip0_1_29">
<rect width="40" height="40" fill="white" transform="translate(4.5)"/>
</clipPath>
</defs>
</svg>
